# MagicaVoxel @ Ephtracy

# group
o 

# material
mtllib CubePlayer.mtl
usemtl palette

# normals
vn -1 0 0
vn 1 0 0
vn 0 0 1
vn 0 0 -1
vn 0 -1 0
vn 0 1 0

# texcoords
vt 0.0175781 0.5
vt 0.0214844 0.5
vt 0.962891 0.5
vt 0.994141 0.5

# verts
v -0.2 0 0.4
v -0.2 0 -0.2
v -0.2 0.1 0.4
v -0.2 0.1 -0.2
v -0.1 0.1 0.4
v -0.1 0.1 -0.2
v -0.1 0.3 -0.1
v -0.1 0.3 -0.2
v -0.1 0.3 -0.4
v -0.1 0.4 -0.2
v -0.1 0.4 -0.4
v -0.1 0.5 0.3
v -0.1 0.5 0.2
v -0.1 0.5 0.1
v -0.1 0.5 -0.2
v -0.1 0.5 -0.4
v -0.1 0.6 0.4
v -0.1 0.6 0.3
v -0.1 0.6 0.2
v -0.1 0.6 0.1
v -0.1 0.6 -0.1
v -0.1 0.6 -0.3
v -0.1 0.7 0.1
v -0.1 0.7 0
v -0.1 0.7 -0.2
v -0.1 0.7 -0.3
v -0.1 0.8 0.1
v -0.1 0.8 0
v -0.1 0.8 -0.2
v -0.1 0.8 -0.3
v -0.1 0.8 -0.4
v -0.1 0.9 0.2
v -0.1 0.9 0.1
v -0.1 1 0.1
v -0.1 1 -0.3
v 0 0 -0.2
v 0 0 -0.3
v 0 0.3 -0.2
v 0 0.3 -0.3
v 0 0.3 -0.3
v 0 0.3 -0.4
v 0 0.4 -0.3
v 0 0.4 -0.4
v 0 0.5 -0.3
v 0 0.5 -0.4
v 0 0.8 -0.3
v 0 0.8 -0.4
v 0.5 0 0.4
v 0.5 0 -0.3
v 0.5 0.5 0.3
v 0.5 0.5 0.2
v 0.5 0.6 0.4
v 0.5 0.6 0.3
v 0.5 0.9 0.2
v 0.5 0.9 0.1
v 0.5 1 0.1
v 0.5 1 -0.3
v -0.2 0 0.4
v -0.2 0.1 0.4
v -0.1 0.1 0.4
v -0.1 0.6 0.4
v 0.5 0 0.4
v 0.5 0.6 0.4
v -0.1 0.5 0.2
v -0.1 0.6 0.2
v -0.1 0.9 0.2
v 0 0.5 0.2
v 0 0.6 0.2
v 0.5 0.5 0.2
v 0.5 0.9 0.2
v -0.1 0.9 0.1
v -0.1 1 0.1
v 0.5 0.9 0.1
v 0.5 1 0.1
v -0.1 0.5 0.3
v -0.1 0.6 0.3
v 0.5 0.5 0.3
v 0.5 0.6 0.3
v -0.2 0 -0.2
v -0.2 0.1 -0.2
v -0.1 0.1 -0.2
v -0.1 0.3 -0.2
v 0 0 -0.2
v 0 0.3 -0.2
v -0.1 0.8 -0.3
v -0.1 1 -0.3
v 0 0 -0.3
v 0 0.3 -0.3
v 0 0.4 -0.3
v 0 0.5 -0.3
v 0 0.8 -0.3
v 0.5 0 -0.3
v 0.5 1 -0.3
v -0.1 0.3 -0.4
v -0.1 0.4 -0.4
v -0.1 0.5 -0.4
v -0.1 0.8 -0.4
v 0 0.3 -0.4
v 0 0.4 -0.4
v 0 0.5 -0.4
v 0 0.8 -0.4
v -0.2 0 0.4
v 0.5 0 0.4
v -0.2 0 -0.2
v 0 0 -0.2
v 0 0 -0.3
v 0.5 0 -0.3
v -0.1 0.3 -0.2
v 0 0.3 -0.2
v 0 0.3 -0.3
v -0.1 0.3 -0.4
v 0 0.3 -0.4
v -0.2 0.1 0.4
v -0.1 0.1 0.4
v -0.2 0.1 -0.2
v -0.1 0.1 -0.2
v -0.1 0.5 0.3
v 0.5 0.5 0.3
v -0.1 0.5 0.2
v 0 0.5 0.2
v 0.5 0.5 0.2
v -0.1 0.6 0.4
v 0.5 0.6 0.4
v -0.1 0.6 0.3
v 0.5 0.6 0.3
v -0.1 0.8 -0.3
v 0 0.8 -0.3
v -0.1 0.8 -0.4
v 0 0.8 -0.4
v -0.1 0.9 0.2
v 0.5 0.9 0.2
v -0.1 0.9 0.1
v 0.5 0.9 0.1
v -0.1 1 0.1
v 0.5 1 0.1
v -0.1 1 -0.3
v 0.5 1 -0.3

# faces
f 3/2/1 2/2/1 1/2/1
f 4/2/1 2/2/1 3/2/1
f 7/2/1 6/2/1 5/2/1
f 8/2/1 6/2/1 7/2/1
f 10/3/1 8/3/1 7/3/1
f 10/3/1 9/3/1 8/3/1
f 11/3/1 9/3/1 10/3/1
f 12/2/1 7/2/1 5/2/1
f 13/2/1 7/2/1 12/2/1
f 14/2/1 7/2/1 13/2/1
f 15/3/1 10/3/1 7/3/1
f 15/4/1 11/4/1 10/4/1
f 16/4/1 11/4/1 15/4/1
f 17/2/1 12/2/1 5/2/1
f 18/2/1 12/2/1 17/2/1
f 19/1/1 14/1/1 13/1/1
f 20/2/1 7/2/1 14/2/1
f 20/1/1 14/1/1 19/1/1
f 21/3/1 16/3/1 15/3/1
f 21/2/1 7/2/1 20/2/1
f 21/3/1 15/3/1 7/3/1
f 22/3/1 16/3/1 21/3/1
f 23/2/1 20/2/1 19/2/1
f 23/2/1 22/2/1 21/2/1
f 23/2/1 21/2/1 20/2/1
f 24/2/1 22/2/1 23/2/1
f 25/2/1 22/2/1 24/2/1
f 26/3/1 16/3/1 22/3/1
f 26/2/1 22/2/1 25/2/1
f 27/2/1 23/2/1 19/2/1
f 27/4/1 24/4/1 23/4/1
f 28/2/1 25/2/1 24/2/1
f 28/4/1 24/4/1 27/4/1
f 29/3/1 26/3/1 25/3/1
f 29/2/1 25/2/1 28/2/1
f 30/3/1 16/3/1 26/3/1
f 30/3/1 26/3/1 29/3/1
f 31/3/1 16/3/1 30/3/1
f 32/2/1 27/2/1 19/2/1
f 32/2/1 29/2/1 28/2/1
f 32/2/1 30/2/1 29/2/1
f 32/2/1 28/2/1 27/2/1
f 33/2/1 30/2/1 32/2/1
f 34/2/1 30/2/1 33/2/1
f 35/2/1 30/2/1 34/2/1
f 38/2/1 37/2/1 36/2/1
f 39/2/1 37/2/1 38/2/1
f 40/3/2 41/3/2 42/3/2
f 42/3/2 41/3/2 43/3/2
f 42/4/2 43/4/2 44/4/2
f 44/4/2 43/4/2 45/4/2
f 44/3/2 45/3/2 46/3/2
f 46/3/2 45/3/2 47/3/2
f 48/2/2 49/2/2 50/2/2
f 50/2/2 49/2/2 51/2/2
f 48/2/2 50/2/2 52/2/2
f 52/2/2 50/2/2 53/2/2
f 51/2/2 49/2/2 54/2/2
f 54/2/2 49/2/2 55/2/2
f 55/2/2 49/2/2 56/2/2
f 56/2/2 49/2/2 57/2/2
f 60/2/3 59/2/3 58/2/3
f 62/2/3 60/2/3 58/2/3
f 62/2/3 61/2/3 60/2/3
f 63/2/3 61/2/3 62/2/3
f 67/1/3 65/1/3 64/1/3
f 68/2/3 66/2/3 65/2/3
f 68/1/3 65/1/3 67/1/3
f 69/2/3 68/2/3 67/2/3
f 70/2/3 66/2/3 68/2/3
f 70/2/3 68/2/3 69/2/3
f 73/2/3 72/2/3 71/2/3
f 74/2/3 72/2/3 73/2/3
f 75/2/4 76/2/4 77/2/4
f 77/2/4 76/2/4 78/2/4
f 79/2/4 80/2/4 81/2/4
f 79/2/4 81/2/4 83/2/4
f 81/2/4 82/2/4 83/2/4
f 83/2/4 82/2/4 84/2/4
f 85/2/4 86/2/4 91/2/4
f 89/2/4 90/2/4 92/2/4
f 90/2/4 91/2/4 92/2/4
f 87/2/4 88/2/4 92/2/4
f 88/2/4 89/2/4 92/2/4
f 91/2/4 86/2/4 93/2/4
f 92/2/4 91/2/4 93/2/4
f 94/3/4 95/3/4 98/3/4
f 95/4/4 96/4/4 99/4/4
f 98/3/4 95/3/4 99/3/4
f 96/3/4 97/3/4 100/3/4
f 99/4/4 96/4/4 100/4/4
f 100/3/4 97/3/4 101/3/4
f 104/2/5 103/2/5 102/2/5
f 105/2/5 103/2/5 104/2/5
f 106/2/5 103/2/5 105/2/5
f 107/2/5 103/2/5 106/2/5
f 110/3/5 109/3/5 108/3/5
f 111/3/5 110/3/5 108/3/5
f 112/3/5 110/3/5 111/3/5
f 113/2/6 114/2/6 115/2/6
f 115/2/6 114/2/6 116/2/6
f 117/2/6 118/2/6 119/2/6
f 119/2/6 118/2/6 120/2/6
f 120/2/6 118/2/6 121/2/6
f 122/2/6 123/2/6 124/2/6
f 124/2/6 123/2/6 125/2/6
f 126/3/6 127/3/6 128/3/6
f 128/3/6 127/3/6 129/3/6
f 130/2/6 131/2/6 132/2/6
f 132/2/6 131/2/6 133/2/6
f 134/2/6 135/2/6 136/2/6
f 136/2/6 135/2/6 137/2/6
